/* XPM */
static char *_453135a33864193a50f9a9601f88080k0G1diOU9eJsRrxf[] = {
/* columns rows colors chars-per-pixel */
"64 64 3 1 ",
"  c black",
". c #3F48CC",
"X c #7F86E3",
/* pixels */
"                                                                ",
" .............................................................. ",
" .............................................................. ",
" ..XXXXXXXXXXXXXXXXXXXXXXXXXXXXXXXXXXXXXXXXXXXXXXXXXXXXXXXXXX.. ",
" ..XXXXXXXXXXXXXXXXXXXXXXXXXXXXXXXXXXXXXXXXXXXXXXXXXXXXXXXXXX.. ",
" ..XX......................................................XX.. ",
" ..XX......................................................XX.. ",
" ..XX......................................................XX.. ",
" ..XX......................................................XX.. ",
" ..XX......................................................XX.. ",
" ..XX......................................................XX.. ",
" ..XX......................................................XX.. ",
" ..XX......................................................XX.. ",
" ..XX......................................................XX.. ",
" ..XX......................................................XX.. ",
" ..XX......................................................XX.. ",
" ..XX......................................................XX.. ",
" ..XX......................................................XX.. ",
" ..XX......................................................XX.. ",
" ..XX......................................................XX.. ",
" ..XX......................................................XX.. ",
" ..XX......................................................XX.. ",
" ..XX......................................................XX.. ",
" ..XX......................................................XX.. ",
" ..XX......................................................XX.. ",
" ..XX......................................................XX.. ",
" ..XX......................................................XX.. ",
" ..XX......................................................XX.. ",
" ..XX......................................................XX.. ",
" ..XX......................................................XX.. ",
" ..XX......................................................XX.. ",
" ..XX......................................................XX.. ",
" ..XX......................................................XX.. ",
" ..XX......................................................XX.. ",
" ..XX......................................................XX.. ",
" ..XX......................................................XX.. ",
" ..XX......................................................XX.. ",
" ..XX......................................................XX.. ",
" ..XX......................................................XX.. ",
" ..XX......................................................XX.. ",
" ..XX......................................................XX.. ",
" ..XX......................................................XX.. ",
" ..XX......................................................XX.. ",
" ..XX......................................................XX.. ",
" ..XX......................................................XX.. ",
" ..XX......................................................XX.. ",
" ..XX......................................................XX.. ",
" ..XX......................................................XX.. ",
" ..XX......................................................XX.. ",
" ..XX......................................................XX.. ",
" ..XX......................................................XX.. ",
" ..XX......................................................XX.. ",
" ..XX......................................................XX.. ",
" ..XX......................................................XX.. ",
" ..XX......................................................XX.. ",
" ..XX......................................................XX.. ",
" ..XX......................................................XX.. ",
" ..XX......................................................XX.. ",
" ..XX......................................................XX.. ",
" ..XXXXXXXXXXXXXXXXXXXXXXXXXXXXXXXXXXXXXXXXXXXXXXXXXXXXXXXXXX.. ",
" ..XXXXXXXXXXXXXXXXXXXXXXXXXXXXXXXXXXXXXXXXXXXXXXXXXXXXXXXXXX.. ",
" .............................................................. ",
" .............................................................. ",
"                                                                "
};
