/* XPM */
static char *fe53bb0ff9a34f99d2b88af01654b4b5RbP5FhSwOj36x9hJ[] = {
/* columns rows colors chars-per-pixel */
"64 64 3 1 ",
"  c black",
". c #0C6624",
"X c #1EE656",
/* pixels */
"                                                                ",
" .............................................................. ",
" .............................................................. ",
" ..XXXXXXXXXXXXXXXXXXXXXXXXXXXXXXXXXXXXXXXXXXXXXXXXXXXXXXXXXX.. ",
" ..XXXXXXXXXXXXXXXXXXXXXXXXXXXXXXXXXXXXXXXXXXXXXXXXXXXXXXXXXX.. ",
" ..XX......................................................XX.. ",
" ..XX......................................................XX.. ",
" ..XX......................................................XX.. ",
" ..XX......................................................XX.. ",
" ..XX......................................................XX.. ",
" ..XX......................................................XX.. ",
" ..XX......................................................XX.. ",
" ..XX......................................................XX.. ",
" ..XX......................................................XX.. ",
" ..XX......................................................XX.. ",
" ..XX......................................................XX.. ",
" ..XX......................................................XX.. ",
" ..XX......................................................XX.. ",
" ..XX......................................................XX.. ",
" ..XX......................................................XX.. ",
" ..XX......................................................XX.. ",
" ..XX......................................................XX.. ",
" ..XX......................................................XX.. ",
" ..XX......................................................XX.. ",
" ..XX......................................................XX.. ",
" ..XX......................................................XX.. ",
" ..XX......................................................XX.. ",
" ..XX......................................................XX.. ",
" ..XX......................................................XX.. ",
" ..XX......................................................XX.. ",
" ..XX......................................................XX.. ",
" ..XX......................................................XX.. ",
" ..XX......................................................XX.. ",
" ..XX......................................................XX.. ",
" ..XX......................................................XX.. ",
" ..XX......................................................XX.. ",
" ..XX......................................................XX.. ",
" ..XX......................................................XX.. ",
" ..XX......................................................XX.. ",
" ..XX......................................................XX.. ",
" ..XX......................................................XX.. ",
" ..XX......................................................XX.. ",
" ..XX......................................................XX.. ",
" ..XX......................................................XX.. ",
" ..XX......................................................XX.. ",
" ..XX......................................................XX.. ",
" ..XX......................................................XX.. ",
" ..XX......................................................XX.. ",
" ..XX......................................................XX.. ",
" ..XX......................................................XX.. ",
" ..XX......................................................XX.. ",
" ..XX......................................................XX.. ",
" ..XX......................................................XX.. ",
" ..XX......................................................XX.. ",
" ..XX......................................................XX.. ",
" ..XX......................................................XX.. ",
" ..XX......................................................XX.. ",
" ..XX......................................................XX.. ",
" ..XX......................................................XX.. ",
" ..XXXXXXXXXXXXXXXXXXXXXXXXXXXXXXXXXXXXXXXXXXXXXXXXXXXXXXXXXX.. ",
" ..XXXXXXXXXXXXXXXXXXXXXXXXXXXXXXXXXXXXXXXXXXXXXXXXXXXXXXXXXX.. ",
" .............................................................. ",
" .............................................................. ",
"                                                                "
};
