/* XPM */
static char *dc64e9d076ed450fc058135a73ce5435K1j7Wyg02TxqqhW8[] = {
/* columns rows colors chars-per-pixel */
"64 64 3 1 ",
"  c black",
". c #720899",
"X c #CD55CF",
/* pixels */
"                                                                ",
" .............................................................. ",
" .............................................................. ",
" ..XXXXXXXXXXXXXXXXXXXXXXXXXXXXXXXXXXXXXXXXXXXXXXXXXXXXXXXXXX.. ",
" ..XXXXXXXXXXXXXXXXXXXXXXXXXXXXXXXXXXXXXXXXXXXXXXXXXXXXXXXXXX.. ",
" ..XX......................................................XX.. ",
" ..XX......................................................XX.. ",
" ..XX......................................................XX.. ",
" ..XX......................................................XX.. ",
" ..XX......................................................XX.. ",
" ..XX......................................................XX.. ",
" ..XX......................................................XX.. ",
" ..XX......................................................XX.. ",
" ..XX......................................................XX.. ",
" ..XX......................................................XX.. ",
" ..XX......................................................XX.. ",
" ..XX......................................................XX.. ",
" ..XX......................................................XX.. ",
" ..XX......................................................XX.. ",
" ..XX......................................................XX.. ",
" ..XX......................................................XX.. ",
" ..XX......................................................XX.. ",
" ..XX......................................................XX.. ",
" ..XX......................................................XX.. ",
" ..XX......................................................XX.. ",
" ..XX......................................................XX.. ",
" ..XX......................................................XX.. ",
" ..XX......................................................XX.. ",
" ..XX......................................................XX.. ",
" ..XX......................................................XX.. ",
" ..XX......................................................XX.. ",
" ..XX......................................................XX.. ",
" ..XX......................................................XX.. ",
" ..XX......................................................XX.. ",
" ..XX......................................................XX.. ",
" ..XX......................................................XX.. ",
" ..XX......................................................XX.. ",
" ..XX......................................................XX.. ",
" ..XX......................................................XX.. ",
" ..XX......................................................XX.. ",
" ..XX......................................................XX.. ",
" ..XX......................................................XX.. ",
" ..XX......................................................XX.. ",
" ..XX......................................................XX.. ",
" ..XX......................................................XX.. ",
" ..XX......................................................XX.. ",
" ..XX......................................................XX.. ",
" ..XX......................................................XX.. ",
" ..XX......................................................XX.. ",
" ..XX......................................................XX.. ",
" ..XX......................................................XX.. ",
" ..XX......................................................XX.. ",
" ..XX......................................................XX.. ",
" ..XX......................................................XX.. ",
" ..XX......................................................XX.. ",
" ..XX......................................................XX.. ",
" ..XX......................................................XX.. ",
" ..XX......................................................XX.. ",
" ..XX......................................................XX.. ",
" ..XXXXXXXXXXXXXXXXXXXXXXXXXXXXXXXXXXXXXXXXXXXXXXXXXXXXXXXXXX.. ",
" ..XXXXXXXXXXXXXXXXXXXXXXXXXXXXXXXXXXXXXXXXXXXXXXXXXXXXXXXXXX.. ",
" .............................................................. ",
" .............................................................. ",
"                                                                "
};
