/* XPM */
static char *_e3f4fdb86364c5d99aeffbe8d31ed1dzh6J12hD7OFFzpjW[] = {
/* columns rows colors chars-per-pixel */
"64 64 3 1 ",
"  c black",
". c #880015",
"X c #F75B63",
/* pixels */
"                                                                ",
" .............................................................. ",
" .............................................................. ",
" ..XXXXXXXXXXXXXXXXXXXXXXXXXXXXXXXXXXXXXXXXXXXXXXXXXXXXXXXXXX.. ",
" ..XXXXXXXXXXXXXXXXXXXXXXXXXXXXXXXXXXXXXXXXXXXXXXXXXXXXXXXXXX.. ",
" ..XX......................................................XX.. ",
" ..XX......................................................XX.. ",
" ..XX......................................................XX.. ",
" ..XX......................................................XX.. ",
" ..XX......................................................XX.. ",
" ..XX......................................................XX.. ",
" ..XX......................................................XX.. ",
" ..XX......................................................XX.. ",
" ..XX......................................................XX.. ",
" ..XX......................................................XX.. ",
" ..XX......................................................XX.. ",
" ..XX......................................................XX.. ",
" ..XX......................................................XX.. ",
" ..XX......................................................XX.. ",
" ..XX......................................................XX.. ",
" ..XX......................................................XX.. ",
" ..XX......................................................XX.. ",
" ..XX......................................................XX.. ",
" ..XX......................................................XX.. ",
" ..XX......................................................XX.. ",
" ..XX......................................................XX.. ",
" ..XX......................................................XX.. ",
" ..XX......................................................XX.. ",
" ..XX......................................................XX.. ",
" ..XX......................................................XX.. ",
" ..XX......................................................XX.. ",
" ..XX......................................................XX.. ",
" ..XX......................................................XX.. ",
" ..XX......................................................XX.. ",
" ..XX......................................................XX.. ",
" ..XX......................................................XX.. ",
" ..XX......................................................XX.. ",
" ..XX......................................................XX.. ",
" ..XX......................................................XX.. ",
" ..XX......................................................XX.. ",
" ..XX......................................................XX.. ",
" ..XX......................................................XX.. ",
" ..XX......................................................XX.. ",
" ..XX......................................................XX.. ",
" ..XX......................................................XX.. ",
" ..XX......................................................XX.. ",
" ..XX......................................................XX.. ",
" ..XX......................................................XX.. ",
" ..XX......................................................XX.. ",
" ..XX......................................................XX.. ",
" ..XX......................................................XX.. ",
" ..XX......................................................XX.. ",
" ..XX......................................................XX.. ",
" ..XX......................................................XX.. ",
" ..XX......................................................XX.. ",
" ..XX......................................................XX.. ",
" ..XX......................................................XX.. ",
" ..XX......................................................XX.. ",
" ..XX......................................................XX.. ",
" ..XXXXXXXXXXXXXXXXXXXXXXXXXXXXXXXXXXXXXXXXXXXXXXXXXXXXXXXXXX.. ",
" ..XXXXXXXXXXXXXXXXXXXXXXXXXXXXXXXXXXXXXXXXXXXXXXXXXXXXXXXXXX.. ",
" .............................................................. ",
" .............................................................. ",
"                                                                "
};
